<?xml version="1.0" encoding="iso-8859-1"?>
<!-- Uploaded to: SVG Repo, www.svgrepo.com, Generator: SVG Repo Mixer Tools -->
<svg fill="#000000" version="1.1" id="Capa_1" xmlns="http://www.w3.org/2000/svg" xmlns:xlink="http://www.w3.org/1999/xlink" 
	 viewBox="0 0 360 360" xml:space="preserve">
<g id="XMLID_1494_">
	<rect id="XMLID_1554_" x="240" y="170" width="20" height="40"/>
	<rect id="XMLID_1555_" x="240" y="250" width="20" height="40"/>
	<path id="XMLID_1558_" d="M360,198.053v-42.898l-37.85-13.247c-6.447-17.3-23.131-29.658-42.65-29.658h-0.75v-44.5
		c0-25.089-20.411-45.5-45.5-45.5h-106.5c-25.089,0-45.5,20.411-45.5,45.5v44.5H80.5c-19.52,0-36.203,12.357-42.65,29.658L0,155.155
		v42.898l35,20v99.697H17.5v20H35h290h17.5v-20H325v-99.697L360,198.053z M340,186.447l-15,8.571v-30.924l15,5.25V186.447z
		 M101.25,67.75c0-14.061,11.439-25.5,25.5-25.5h106.5c14.061,0,25.5,11.439,25.5,25.5v44.5h-157.5V67.75z M20,186.447v-17.102
		l15-5.25v30.924L20,186.447z M55,317.75v-160c0-14.061,11.439-25.5,25.5-25.5h199c14.061,0,25.5,11.439,25.5,25.5v160H55z"/>
</g>
</svg>